<?xml version="1.0" encoding="UTF-8"?>
<svg xmlns="http://www.w3.org/2000/svg" version="1.1" viewBox="0 0 841.9 595.3">
  <defs>
    <style>
      .cls-1 {
        fill: #cc2524;
      }

      .cls-2 {
        fill: #307243;
      }
    </style>
  </defs>
  <!-- Generator: Adobe Illustrator 28.7.1, SVG Export Plug-In . SVG Version: 1.2.0 Build 142)  -->
  <g>
    <g id="Camada_1">
      <path d="M175.5,191h22v4h-22v34.1h-10.1v-68.9h40.7v7l-19.2-3.2c-3.5,0-7.2.6-11.3,1.8v25.3Z"/>
      <path d="M240.6,196.2v32.9h-10.2v-68.9h22.5c7,0,12.7,1.6,17.2,4.7,4.5,3.1,6.7,7.2,6.7,12.3s-1.8,9.1-5.4,12.1c-3.6,2.9-8.4,5-14.5,6.1l27.9,33.7-12.1,1.5-24.1-34.3h-8ZM240.6,193.1h6.7c12.5,0,18.7-4.9,18.7-14.8s-.4-3.5-1.2-5.6c-1.6-4.4-5-7.2-10.2-8.6-4.7,0-9.4.6-13.9,1.8v27.2Z"/>
      <path d="M303.4,229.1l30.9-70.5h1.6l30.9,70.5h-11.3l-7.8-18.7h-30.9l-7.7,18.7h-5.6ZM318.3,206.4h27.7l-13.7-33.7-13.9,33.7Z"/>
      <path class="cls-2" d="M399.6,172.2c0,3.1,1.2,5.9,3.6,8.5,2.4,2.6,5.3,4.9,8.7,6.9s6.8,4,10.2,6c3.4,2,6.3,4.6,8.7,7.5,2.4,3,3.6,6.3,3.6,9.9,0,5.7-2.1,10.3-6.3,13.9-4.2,3.6-9.9,5.4-17,5.4s-14.2-1.4-21.2-4.1v-4.9c7.1,3.5,13.1,5.3,18,5.3s8.8-1.2,11.6-3.6c2.8-2.4,4.2-5.8,4.2-10.1s-1.1-5.6-3.4-8c-2.3-2.4-5.1-4.5-8.3-6.2-3.3-1.8-6.5-3.6-9.8-5.5-3.3-1.9-6-4.2-8.3-7.1-2.3-2.9-3.4-6.4-3.4-10.5s1.8-7.9,5.5-11.4c3.6-3.5,9.1-5.3,16.3-5.3s10.7,1.1,17.9,3.2l-1,7.1c-9.4-4-17.4-6-24-6-3.6,1.7-5.4,4.7-5.4,8.9Z"/>
      <path class="cls-1" d="M472.4,172.2c0,3.1,1.2,5.9,3.6,8.5,2.4,2.6,5.3,4.9,8.7,6.9s6.8,4,10.2,6c3.4,2,6.3,4.6,8.7,7.5,2.4,3,3.6,6.3,3.6,9.9,0,5.7-2.1,10.3-6.3,13.9-4.2,3.6-9.9,5.4-17,5.4s-14.2-1.4-21.2-4.1v-4.9c7.1,3.5,13.1,5.3,18,5.3s8.8-1.2,11.6-3.6c2.8-2.4,4.2-5.8,4.2-10.1s-1.1-5.6-3.4-8c-2.3-2.4-5.1-4.5-8.3-6.2-3.3-1.8-6.5-3.6-9.8-5.5-3.3-1.9-6-4.2-8.3-7.1-2.3-2.9-3.4-6.4-3.4-10.5s1.8-7.9,5.5-11.4c3.6-3.5,9.1-5.3,16.3-5.3s10.7,1.1,17.9,3.2l-1,7.1c-9.4-4-17.4-6-24-6-3.6,1.7-5.4,4.7-5.4,8.9Z"/>
      <path d="M547.2,160.2v68.9h-9.6v-68.9h9.6Z"/>
      <path d="M633.2,230.2h-1.8l-45.6-57h-.4v55.8h-4.6v-68.9h7.7l39.6,50h.4v-50h4.6v70Z"/>
      <path d="M676.5,160.2v68.9h-9.6v-68.9h9.6Z"/>
      <path d="M259.7,339.7h-4.1v-26.2c-1-.2-1.9-.3-2.9-.3l-5.8,1.3-.3-3h22l-.2,3-5.8-1.3c-1,0-1.9.1-2.9.3v26.2Z"/>
      <path d="M293.4,326.2v13.5h-4.2v-28.3h9.2c2.9,0,5.2.6,7.1,1.9s2.8,3,2.8,5.1-.7,3.7-2.2,5c-1.5,1.2-3.5,2-6,2.5l11.4,13.8-5,.6-9.9-14.1h-3.3ZM293.4,325h2.7c5.1,0,7.7-2,7.7-6.1s-.2-1.5-.5-2.3c-.7-1.8-2-3-4.2-3.5-1.9,0-3.8.2-5.7.7v11.2Z"/>
      <path d="M329.3,339.7l12.7-28.9h.6l12.7,28.9h-4.7l-3.2-7.7h-12.7l-3.2,7.7h-2.3ZM335.4,330.4h11.4l-5.6-13.8-5.7,13.8Z"/>
      <path d="M385.5,339.7h-4.1v-26.2c-1-.2-1.9-.3-2.9-.3l-5.8,1.3-.3-3h22l-.2,3-5.8-1.3c-1,0-1.9.1-2.9.3v26.2Z"/>
      <path d="M424.6,339.7h-4.1v-26.2c-1-.2-1.9-.3-2.9-.3l-5.8,1.3-.3-3h22l-.2,3-5.8-1.3c-1,0-1.9.1-2.9.3v26.2Z"/>
      <path d="M466.9,311c3.7,0,6.8,1.2,9.2,3.7,2.4,2.4,3.6,5.8,3.6,10.1s-.5,5.2-1.5,7.3c-1,2.1-2.2,3.7-3.8,4.8-3,2.2-6.4,3.3-10.1,3.3s-6.7-1.2-9.1-3.7c-2.4-2.5-3.6-5.9-3.6-10.2s.3-4.3,1-6.1c.6-1.8,1.5-3.3,2.5-4.4,1-1.1,2.2-2.1,3.6-2.9,2.5-1.4,5.2-2,8.2-2ZM461.3,337.8c1.3.7,2.7,1,4.3,1s3.1-.4,4.4-1.2c1.3-.8,2.3-1.9,3-3.2,1.5-2.7,2.2-5.5,2.2-8.6s-.8-6.8-2.3-9.1c-1.7-2.6-4.5-3.9-8.3-3.9-2.8,1-4.9,2.6-6.3,5-1.4,2.4-2.1,5-2.1,8s.7,6.7,2.1,9.1c.7,1.3,1.7,2.2,3,2.9Z"/>
      <path d="M505.4,326.2v13.5h-4.2v-28.3h9.2c2.9,0,5.2.6,7.1,1.9s2.8,3,2.8,5.1-.7,3.7-2.2,5c-1.5,1.2-3.5,2-6,2.5l11.4,13.8-5,.6-9.9-14.1h-3.3ZM505.4,325h2.7c5.1,0,7.7-2,7.7-6.1s-.2-1.5-.5-2.3c-.7-1.8-2-3-4.2-3.5-1.9,0-3.8.2-5.7.7v11.2Z"/>
      <path d="M548.7,311.5v28.3h-3.9v-28.3h3.9Z"/>
      <path d="M569.2,339.7l12.7-28.9h.6l12.7,28.9h-4.7l-3.2-7.7h-12.7l-3.2,7.7h-2.3ZM575.3,330.4h11.4l-5.6-13.8-5.7,13.8Z"/>
      <g>
        <path d="M379,276.1c-14.8-.3-29.6-.7-44.5-1-14.4-.3-28.9-.4-43.3-.7-10.6-.2-21.2-.3-31.8-.4-1.2-.7-2.8.7-3.8-.8,18.5-1.3,37.1-2,55.6-1.9,23.5.1,47,1.3,70.4,3.6,1.9.2,3.8.4,5.7.6,0,.5-.3.6-.8.6-2.5,0-5,.2-7.5-.1Z"/>
        <path d="M510,362.1c12.4.6,24.8,1.4,37.3,1.9,13.2.5,26.3.8,39.5.6,1.3,0,2.5,0,3.8.2-28,4.1-55.8,3.4-83.5-2.2.8-1.2,2-.4,3-.5Z"/>
        <path d="M326.4,368.5c-25.6-1.4-51-4.8-76.3-8.8,26.5,0,52.7,3.2,78.7,8.3-.6,1.2-1.6.5-2.4.5Z"/>
        <path d="M319.2,280.7c-13.7.3-27.4,0-41.1-.7-10.6-.6-21.2-1.4-31.7-2.2-1.8-.1-3.6-.4-5.4-.6,0-.3,0-.5,0-.8,3.6,0,7.2,0,10.8,0,17.6-.3,35.1.2,52.6,2,5,.5,10,1.2,14.9,1.9.2,0,.2.2.2.2,0,0-.1.1-.2.1Z"/>
        <path d="M354.8,362.7c11.8-2,23.7-3,35.7-2.7,13.3.3,26.5,1.9,39.4,5.1-.6,1.3-1.6.5-2.5.5-7.7-.5-15.4-1.1-23.1-1.6-15.1-1-30.1-1-45.2-.8-1.4,0-3,.9-4.3-.5Z"/>
        <path d="M322.7,279.9c23.4-2.8,46.8-2.1,70,1.8-21.3.2-42.6-.2-63.8-1.1-1.6-.4-3.3,0-4.9-.2-.4,0-1.2.4-1.2-.6Z"/>
        <path d="M525.9,275.9c6.9-.2,13.7.3,20.5.7,8.3.5,16.5,1.2,24.8,1.9.3.2.7.3.5.8-16.9,1.3-33.8.9-50.6-1.7-2.3-.4-4.5-.8-6.8-1.1,0-.5.3-.6.8-.6,3.6,0,7.3-.2,10.9.1Z"/>
        <path d="M589.7,283.1c-18.5,4.3-36.9,4.2-55.4,0,.3-1.3,1.2-.6,1.9-.6,1.3,0,2.6-.2,3.9.1,16.4.3,32.8.4,49.3,0,.1,0,.3-.1.3,0,.2.1.1.3,0,.5Z"/>
        <path d="M285.7,358.2c-12.5,1.1-24.8-.2-36.8-3.8,1.8-1.3,3.8-.4,5.8-.5,11.2.3,22.3,1.6,33.4,3.5-.5,1.3-1.7.2-2.4.8Z"/>
        <path d="M326.4,286.9c-11.9,1.9-23.8,1.7-35.6-.9-.4,0-.8-.1-1.2-.3-.4-.1-.7-.3-1.1-.6,12.7-1.1,25.3-.4,37.9.9.3.3.3.5,0,.8Z"/>
        <path d="M586.5,372.5c-13,2.4-25.9,2.1-38.8-1,13-1.4,25.9-1,38.8,1Z"/>
        <path d="M592.4,359.4c-10.6,2.2-21.1,1.9-31.6-1.1,10.6-1.5,21.1-.9,31.6,1.1Z"/>
        <path d="M379,276.1c1.9,0,3.9,0,5.8-.1.8,0,1.7.3,2.5-.4,2-.3,3.8.4,5.7.5.2,0,.2.2.2.2,0,0-.1.1-.2.1-4.7,0-9.4.1-14-.4Z"/>
        <path d="M525.9,275.9c-3.1,0-6.3,0-9.4.1-.8,0-1.6-.3-2.2.4-1,.1-1.8,0-3.3-.9,5.4.2,10.2-.2,14.9.4Z"/>
        <path d="M255.6,273.2c1.1,1,2.7-.1,3.8.8-3,0-6,0-9.6,0,2.2-.9,4-.9,5.8-.8Z"/>
        <path d="M322.7,279.9c2,.8,4.2-.1,6.2.8-3.2,0-6.4,0-9.7,0,0-.1,0-.2,0-.4,1.2-.1,2.3-.3,3.5-.4Z"/>
        <path d="M540.1,282.6c-1.9.6-3.9-.6-5.8.5-.6,0-1.2,0-1.7-.9,2.6,0,5-.2,7.5.4Z"/>
        <path d="M254.7,354c-1.9.6-3.9-.5-5.8.5-.8,0-1.3-.2-1.7-1.2,2.6.6,5.1,0,7.5.7Z"/>
        <path d="M354.8,362.7c1.3.9,2.9,0,4.3.5-2,.5-3.9.5-6.1.3.4-1,1.1-.9,1.8-.8Z"/>
        <path d="M510,362.1c-.9.4-2.1-.3-3,.5-.9-.2-1.9-.3-2.8-.5,0-1.2.9-.5,1.4-.5,1.5.2,3-.1,4.4.5Z"/>
        <path d="M326.4,368.5c.7-.4,1.7.3,2.4-.5.7-.2,1.4,0,2.4.9-1.9,0-3.4.2-4.8-.4Z"/>
        <path d="M427.4,365.6c.8-.4,1.8.3,2.5-.5.8.2,1.6.3,2.4.5,0,.9-.5.6-1,.5-1.3-.2-2.6.1-3.9-.5Z"/>
        <path d="M572.6,278.5c.9-.2,1.7,0,2.6.6-.6.3-1.1.3-1.6.2-.3-.3-1.1,0-.9-.8Z"/>
        <path d="M285.7,358.2c.6-.7,1.7-.1,2.4-.8.2,0,.5,0,.7,0,.2.1.2.4,0,.5-1,.4-2,.4-3,.3Z"/>
        <path d="M505.6,361.6c-.4.2-1.1,0-1.4.5-.4.1-.8.1-1-.3-.3-.7.3-.6.6-.6.6,0,1.3-.1,1.8.4Z"/>
        <path d="M431.3,366.1c.3-.2.7-.3,1-.5.6,0,1,.2,1.6.6-.9.5-1.8.4-2.6-.1Z"/>
        <path d="M572.6,278.5l.9.8c-.6,0-1.3,0-1.9,0-.2-.3-.3-.5-.5-.8.5,0,.9,0,1.4,0Z"/>
        <path d="M393,276.5c0-.1,0-.3,0-.4.6,0,1.2-.2,1.7.4-.6.6-1.2,0-1.7,0Z"/>
        <path d="M589.7,283.1c-.1-.1-.2-.3-.3-.4.4-.4,1-.8,1.2,0,.1.5-.5.4-.9.4Z"/>
        <path d="M326.4,286.9c0-.3,0-.5,0-.8.5-.1,1.2-.2,1.2.2,0,.7-.6.7-1.2.6Z"/>
        <path d="M803.3,322.4c-2-6.9-6.3-12.5-11.2-17.6-3.5-3.7-7.8-5.8-12.8-6.4-12.7-1.4-25.3-1.1-37.9.7-12.9,1.9-25.5,5.4-38.3,8.2-1.7.4-3.1.5-4.2-1.1-.7-1-1.8-1.2-3-1.1-3.8.3-7.6.5-11.5.6-12.1.6-24.2.3-36.3-.9-5.3-.5-10.6-1.8-15.9-1.4-2.5.2-2.7-.5-2.7-2.7.1-8.1-.3-16.2-3.8-23.6-4.7-10-12-16.7-23.5-17.2-8-.4-16.1-.5-24.2-.6-21.3-.3-42.6-.6-63.9-.6-50.3,0-100.6.3-150.9.4-25.4,0-50.8-.2-76.1-.4-14,0-27.9-.3-41.9-.4-1.7,0-3.3-.2-4.9-1.3-2.4-1.7-5.3-2-8.3-1.5-6.7,1.2-13.4,8.2-14.3,15-1,7.5-2.1,15.1-3.1,22.9-5.9-4.2-12.3-3.9-18.9-2.7-4.2.7-8.4,1.1-12.6,1-10.4-.3-20.7-.1-31.1.4-3.5.2-7.2-1.1-10.5,1-.4.2-.7-.2-1-.5-4.7-4.7-10.8-6.5-17.2-7.6-8.6-1.6-17.4-2.5-26.1-3.1-9.7-.7-19.4-1.9-29.1-1.8-9.5,0-17.7,3.1-23.8,10.6-6.6,8.1-8.8,17.4-4.8,27.2,3.6,9,9.5,15.5,20.2,15.9,7.3.2,14.6,1.5,22,1.2,13.9-.7,27.7-1.6,41.5-2.6,5.4-.4,10.7-1.6,15.3-4.9.9-.7,1.3-.4,1.9.3,1.4,1.5,2.9,2.6,5.1,2.8,9.8,1.2,19.7,1.7,29.6,1.5,6.1-.1,12.3-.5,18.3,1,5.5,1.4,11,2.9,16.7,1,1.3-.4.9.7.9,1.3-.2,6.7.7,13.4,1.9,20,1,5.7,2.3,11.4,5.6,16.3,4.2,6.2,11.4,9.4,17.7,7.7,1.7-.5,3.4-.7,5.1-.6,23.7.4,47.4.7,71.1,1.1,23.9.3,47.7.6,71.6.9,19,.2,38,.4,57,.6,24.7.2,49.3.4,74,.5,24.4,0,48.8,0,73.3,0,2.9,0,5.9-.4,8.7-1.3.8-.3,1.8-.5,1.7-1.4,0-.9-1.1-1.1-1.8-1.3-2.3-.7-4.7-1-7.1-1.1-11.7-.7-23.4-1.4-35.1-1.9-21.9-.9-43.8-1.8-65.8-2.3-27-.7-54.1-1.1-81.1-1.5-17.2-.3-34.3-.3-51.5-.5-20.4-.2-40.9-.3-61.3-.5-15.9-.1-31.8-.3-47.6-.5-4,0-8.1,0-12.3,0,.4-1,0-2.1-.6-3.2-.2-.3-1.6.8-.9-.7.4-.8.2-2.5,1.1-2.4,3.2.3,2.1-1.8,1.8-3.1-1.3-7.6-1.8-15.2-2.3-22.8-.9-13.7-.6-27.4,0-41.1.4-9.1,1.7-18.1,4.3-26.8.6-2,1.5-2.6,3.7-2.6,27,.1,54,.2,80.9.2,62.4,0,124.8,0,187.3.3,29.8.2,59.5.5,89.3.7,1.4,0,2.1.2,2.2,1.9.3,5.4,1.6,10.7,2.9,15.9,1.4,5.8,2.9,11.6,4.1,17.4,1.2,5.8,1.3,11.6,1.3,17.4,0,9.3-1.4,18.6-3.1,27.7-1.6,8.7-3.7,17.3-5.8,25.8-.4,1.6-.8,3.2,1.7,3.2,0,1-1.3,1.1-1,2.1.6,0,1.2,0,1.7-.1,3.5-1,6.5-2.8,9.2-5.5.1.7.3.9.2,1.1-1.9,5.7-6.7,8.1-12.5,6.2-.6-.2-1.3-.7-1.7,0-.4.6.1,1.2.5,1.7,1.3,1.6,3.1,2.2,5.1,2.3,5.6.3,9.1-2.8,11.8-7.2,2.7-4.4,4.3-9.4,5.9-14.3,2-6.1,3.3-12.3,4.5-18.9,2.7,2.3,5.5,3.4,8.6,4,7.9,1.4,15.9.9,23.8.2,12.2-1.2,24.4-3.2,36.7-2.9,1.2,0,2.2-.2,2.9-1.2.4-.6.9-.8,1.6-.3,7,4.9,15,5.7,23.2,6,14.5.5,29,1.2,43.5,2.7,7.1.7,14.2.5,21-2.2,12.6-5,18.6-16.4,15-28.7ZM84.6,292.5c.2-.6,0-1.7,1.2-1.7,1,0,2.1.1,3.8.3-1.5,1.2-2.2,2.5-3.8,2.2-.5,0-1.5.4-1.2-.8ZM83.7,295.4c.2-.5.4-1.1,1.1-.8.3,0,.6,0,.6.5-.3.4-.6.9-1.2.9-.4,0-.6-.3-.5-.6ZM79.5,293.6s0,0,0,0c.9-1.1,1.2-2.7,3.2-3.7-.7,1.9-1.5,2.8-2.4,3.8.1,2.3,0,2.4-2.5,2.4.3-1,.9-1.7,1.7-2.4ZM59.6,294.1c.3,0,.6.1.4.6-.3.2-.3,1-.9.8-.2,0-.5-.4-.5-.7,0-.6.4-.7,1-.7ZM60.7,311c.2-.8.3-1.6.5-2.5.7.7.2,1.4.3,2,0,.7.4,1.5-.2,2.3-1-.3-.6-1.1-.7-1.8,0,0,0,0,0,0,0,0,0,0,0,0ZM61.3,295.6c-.5-.7-.2-1.2.5-1.5.5.7,0,1.1-.5,1.5ZM61,300.8c-.2.3-.6,0-.7-.2-.4-.8-.2-1.5.7-2.2.4.9.5,1.7,0,2.4ZM60.4,301.7c1.8.4.2,1.8.8,2.6-1-.2-2.3,0-1.8-1.5.2-.5.2-1.2,1-1.1ZM56.2,294.6h-3.4c1.2-1.4,2.4-.4,3.4,0ZM53.7,298.3c-.8-.1-1.6-.3-2.7-.5,1.2-.4,2-.3,2.7.5ZM50.6,301.6c.8-.6,1.6-.2,2.7,0-1,1.1-1.8.8-2.6.6,0,0-.2-.5-.1-.6ZM46.7,313.2c0-.7.4-1,1-.9.8.2,1.7-.2,2.6.9-1,.2-1.7.4-2.4.6-.5.1-1.1.3-1.2-.6ZM47.3,316.1c1-.4,1.6,0,2.7.4-1.1.2-1.8.5-2.7-.4ZM50.6,320.7c0,0-.3,0-.4-.1-.4-.8.3-1,.6-1.6.4.8.5,1.4-.2,1.7ZM49.4,305.7c.9-.7,1.4-.2,2.3.1-1.1.4-1.7.5-2.3-.1ZM54,324.4c-.6-.3-1.3-.6-1.5-1.4,0-.4.3-.5.7-.6.4.5,1.6,0,1.4,1.2,0,.3,0,1-.6.8ZM57.8,324.6c0,.7-.2,1.2-1.1,1.1-.4,0-.9-.2-.8-.6.2-.7.4-1.5,1.2-1.6.5,0,.7.5.7,1.1ZM57.7,310.9c-.4,0-.5-.4-.5-.7,0-.1.4-.3.6-.3.2,0,.5.2.6.3-.1.6-.3.8-.7.7ZM58.6,308.2c-.6,0-.5-.7-.5-1.1.2-1.4,1.1-1,2.1-.7-.7.7-.3,2-1.7,1.9ZM60.9,325.9c-.4,0-1.2.3-1.2-.6.3-.7.6-1.1,1.4-1,.6,0,1.1.3,1,1,0,.9-.7.6-1.2.6ZM62.7,321.8c0,.1-.6,0-.8-.1-.8-.7,0-1.2.4-2.2.4,1,1,1.6.5,2.3ZM60.7,291.9c-.5-.1-1.4-.5-.9-1,.9-1,2.3-1.1,3.9-1-.9,1.1-1.3,2.5-3,2ZM137.3,299.4c-3.7,7.6-4.5,15.4-.5,23.2.5,1,0,1.1-.7,1.4-3.1,1-6.2,1.3-9.4,1.3-8.5,0-17.1-.7-25.6,0-9,.8-17.9,1.7-27,1.4-.2,0-.5,0-.7,0-3.7,0-3.4-.1-4.7-3.6-2.7-7.5-3.6-15.1-3.4-23,0-2.8.7-5.5,1.7-8.1.8-2.1,2-3.1,4.3-2.6.8.2,1.7.1,2.8.2-2.4,3.8-4.7,7.3-5.7,11.7,2.1-1,3.2-2.9,5.1-4.2-.3,2.1-1.4,3.7-1.5,6.2,1.2-1.6,2.2-2.6,3-3.9.9-1.5,2-1.9,3.7-1.5,1.9.4.6,1.8,1.1,2.6.2.3.3.7.4,1.1,1.2-.9,1.2-2.6,2.5-3.3.8.8-.3,1.4,0,2,.1,0,.3.1.4,0,2-1.6,4.2-1.8,6.6-1.5,8.6,1,17.4.8,25.9,2.8,4.8,1.1,9.3,3,13.4,5.8-3.1-4.1-7.3-6.4-11.9-8.2-.7.1-1.3-.4-2-.6.8-.4,1.4-.5,2,.1,4.3.2,8.1,2.2,11.9,3.9.2-.2.3-.3.5-.5-5.9-5.6-13.4-7-21.1-7.7-5.6-.5-11.3-.9-17-1.4.4-1.2.7-1.9,2.2-1.8,11.2.9,22.4,1.8,33.6,2.7,3.3.3,6.4,1.2,9.3,2.8,1.1.6,1.3,1.2.7,2.4ZM212.3,298.4c-1.7.7-3.2,1.6-5,1.4,1.6-.6,2.4-3.2,5-1.4ZM206.1,297.1c.1-.2.3-.3.5-.3.2,0,.4.1.3.5-.1,0-.3.2-.5.2-.2,0-.5,0-.3-.4ZM203.5,301.8c.2,0,.4,0,.6,0-.2.7-.9,1-1.2.8-.6-.6.2-.6.5-.7ZM160.8,299.8c-1,1.9-3.4,2.7-6.6,2.4,1.1-3.7,4.2-1.8,6.6-2.4ZM196.7,305.7c.2,3-.7,6-.9,9-.3,3.1.3,6.1,1.5,9.5-9.6-3.7-19.1-1.7-28.5-1.7-6.5,0-13.1-.1-19.6-.6-1.9-.1-3.2-.9-4.3-2.5-4-6.1-2.3-13.3.5-18.6.4-.7,1.1-.9,1.8-.9,1.4,0,2.7,0,4.3,0-.9,1.6-1.9,3.1-2.7,4.7-.7,1.6-.6,3.3-.5,5.2,2.2-3.8,5.1-6.4,9.8-5.3-.5,1.7-1.4,3.4-1.4,5.9,1.7-1.9,3.1-3.3,4.4-5,.8-1,1.6-1.3,2.8-1.3,7.1.1,14.1,1.5,20.9,3.5,1.4.4,2.7.8,4.2.9.8-.4,1.7.3,2.4-.4-2.4-.6-4.6-1.7-7-2.9,2.3-.8,4.5-.3,6.9-1.4-8.7-2-17.3-3-26-3.7,11.3-.9,22.8,1.4,34.3-2.4-1.1,2.8-3,4.9-2.8,7.9ZM200.7,318.9c-.3-.6-.3-1.2.5-1.5,1-.4,2-.8,3-1.3,0,0,0,0,0,0,.6-.5,1.2-1,2.3-1-.4.9-1.1,1.1-1.7,1.4-.9.7-1.9,1.4-2.8,2.1-.4.3-.8,1-1.3.1ZM203.6,325.6c1-.3,1.7-.6,2.4-.8-.5,1.2-1.1,1.9-2.4.8ZM209.1,323.2c1.3-.9,2.2-1.6,2.9-2q0,1.1-2.9,2ZM210.1,318.7c-2.2.8-4.2,2.3-6.1,3.7-.4.3-.8,1.1-1.5.8-.2-.1-.4-.5-.5-.8-.2-1,.8-.9,1.3-1.1,3.6-1.6,6.5-4.1,9-7.4.7,2.4.2,3.9-2.2,4.8ZM209.7,313.4c-.5.6-1.1,1-2,1.2,0-1.1.9-1.3,1.5-1.7h0c1.1-1.2,2.3-2.4,3.6-3.8.7,3.2-1.7,3.3-3.1,4.3ZM211.4,308c-3.9,1.9-7.5,4.4-10.9,7.4-.8-2.4-.2-3.6,2.1-4.2,4.1-1.3,7.6-3.8,10.6-7,.4,2.8.4,2.8-1.8,3.8ZM212.3,302.7c-4,1.8-7.9,4-11.7,6.6-.3-1.9,0-2.9,2-3.4,4.3-1,7.9-3.5,11.2-6.6.5,1.8.2,2.7-1.4,3.4ZM232.4,265c-.9.6-1.4,1-1.9,1.3-.1-.1-.3-.3-.3-.3.3-.8.8-1.2,2.2-1ZM231.5,281.9c.3,1.3-.4,1.7-1.5,1.7.5-.5.9-1,1.5-1.7ZM229.3,355.3c.4-1,.9-2,1.4-3.3,1,1.8.2,2.7-1.4,3.3ZM228.9,280c0,.6-.3.9-.8,1,0,0-.2-.2-.2-.3,0-.6.6-.5,1.1-.7ZM229,289.5c-.2.6-.5,1-1,1.1,0,0-.2-.2-.2-.3,0-.5.5-.7,1.2-.8ZM229.8,296.6c.2-.4.4-.7.9-1.7,0,2,.2,3.3-.3,4.6-.8.8-1.6,1.7-2.4,2.5-.1,0-.3-.2-.4-.3.7-1.7,1.5-3.4,2.2-5.2ZM230,304.4c.4,2.8-2.5,3.4-3.7,5.2,1-1.9,2.5-3.4,3.7-5.2ZM225.9,304.1c0-.7.2-1.3,1.2-1.4-.1.8-.6,1.2-1.2,1.4ZM227.4,272.7c-.4.6-.7,1.2-1.5,1.3,0-1.1.5-1.4,1.5-1.3ZM224.8,282.6c.5-.9,1.5-1,2.6-1.1-.7.7-1.3,1.5-2,2.2h0,0c-.1.4-.6,1-.8.8-.4-.5-.1-1.3.2-1.9ZM227.5,286.1c-1.3,1.6-2.3,2.9-3.4,4.2-.8-2.8.7-3.6,3.4-4.2ZM227.1,291.1c-1.3,1.7-2.2,3.2-3.8,4.4-.5-2.9,1.3-3.7,3.8-4.4ZM222.9,298.9c.2-1.1.9-1.1,2-.9-.6.8-1,1.3-1.5,1.9,0,.5-.6.9-.7.7-.5-.5,0-1.2.2-1.7ZM222.2,307.3c.4-.6,1-1.2,2.3-1.2-.5.8-.9,1.4-1.3,2-.3.5-.6,1.3-1.3.8-.2-.1,0-1.2.4-1.6ZM221.1,315.8c0-.5.3-1,.4-1.5.1-2.5,2.7-2.6,3.7-4.2.2.1.3.3.5.4-1.2,1.7-2.4,3.5-3.6,5.2h0,0c-.2.2-.3.6-.5.7-.4.1-.4-.3-.4-.6ZM224.4,317c-1.2,1.9-2.3,3.4-3.4,5.2-.5-2.8.6-4.3,3.4-5.2ZM222.3,323.9c2.9-2.1,5.1-4.9,7.2-7.9.5,1.7,0,2.7-1.3,3.7-3,2.3-5.4,5.2-7.5,8.6-.6-2.1,0-3.4,1.5-4.5ZM229.5,322.9c0,.9-.2,1.6-1.5,1.2.4-.5.7-1,1.1-1.6.2.2.4.3.4.4ZM222.4,329.4c1.3-.7,2.3-1.8,3.6-2.5-1.9,2.5-3.9,5-5.7,8-.6-2.6-.1-4.3,2.1-5.4ZM221.9,335.6c2.9-1.8,5.2-4.3,7.4-6.9-.4,2.6-2.7,3.8-4.1,5.6-1.5,2-3.1,3.8-4.8,5.8-.6-1.9-.4-3.3,1.5-4.5ZM222.6,344.6c3-2.1,4.9-5.1,6.7-8.4q.8,4-1.9,6.3c-2.3,2-4.3,4.2-6,6.8-1-2.1-.6-3.4,1.2-4.7ZM225.4,361c.4,1-.4,1.6-.6,2.4q-1-1.4.6-2.4ZM227,365.7c-.3.4-.3,1.3-1.1.5-.3-.3-.9-.8-.2-1.4.8-.6,1.7-1.3,2.5-1.9,0,0,.2.2.3.3-.5.8-1,1.7-1.5,2.5ZM226,354.6c-.9,1.6-1.8,3.1-2.7,4.8-1.7-2.9,1-3.5,2.3-4.8,1.7-2.6,3.3-5.2,4.3-8.1-1.1-1.3-1.3,1-2.4.3.6-1.3,1.3-2.7,2.1-4.2.8,1.3.5,2.7.5,3.9,1.8,4.3-2,5.8-4.1,8.2ZM232.1,362.9v-2.1c-1.3.2-1.9,1.3-3.1,1.6,1-2,1.9-3.9,2.7-6.3.6,1.6.9,2.9,1.5,4,.9,1.5.4,2.3-1.1,2.8ZM232.8,272.3c.8-.8,1.3-1.4,1.8-1.9,0,1-.1,1.8-1.8,1.9ZM236.7,266c-.8.4-1.5,1.2-2.9,1.3.7-1.1,1.2-1.9,1.8-2.6.5-.6.9-.2,1.3.2.4.4.4.8-.2,1.1ZM620.9,303.7c-2.2,2.3-4.2,4.9-6.4,7.4-.8-1.4-.4-2.5.6-3.6,2.7-2.9,4.7-6.3,6.8-10,.7,2.4.7,4.3-1,6.1ZM620.5,286.7c1.4,3.1,1.4,3.2-.5,5.4-2.5,3-4.7,6.2-6.8,9.6-1.7-2.9-.3-4.8,1.7-6.7,2.4-2.3,4.1-5.2,5.6-8.4ZM611.2,354.2c0-2.8,2.5-3.2,4.1-4.4-1.4,1.5-2.8,3-4.1,4.4ZM611.9,357.1c-.1,1-.8,1.2-1.5,1.7,0-1.3.6-1.4,1.5-1.7ZM613.5,292.1c-.5,1-1,2-1.7,3.3-1.1-2.2.5-2.6,1.7-3.3ZM615.3,275.1q1.1,1.5-1.6,3.7c.5-1.2,1-2.4,1.6-3.7ZM605,271.3c-.3-1.2-.6-2-.8-2.9,1.2-.3,2,.3,3,.5-.7.7-1.3,1.4-2.2,2.4ZM606.1,274.6c-.6-1.2-.4-1.8,1.1-1.9,1,0,1.6-.6,1.9-1.6.1-.5,0-1.3.9-.8.9.4.5,1,0,1.5-1.3,1.4-2.1,3.2-3.1,5.1-.3-.9-.5-1.7-.8-2.3ZM610,276.9c.7-.9,1.4-1.7,2.4-2.4,0,0-.1-.2-.1-.2.3-.5.6-1.1.9-1.6.2.2.5.3.5.5,0,.8-.6,1.1-1.2,1.4-.3,1-1,1.7-1.7,2.4h0s0,0,0,0c-.8,1.3-1.6,2.7-2.4,4-1.9-2.4.2-3.1,1.6-4.1ZM611.5,281.1c.2.1.4.2.6.4-.8,1.3-1.5,2.7-2.3,4.2-2-2.9,1.6-2.9,1.8-4.5ZM611.3,287.8c.6-.5,1.1-1.1,1.6-1.7.6-.8,1.2-1.7,1.8-2.5.9-1.8,1.8-3.6,2.7-5.4,1.4,1.3,1.3,2.4-.2,3.7-.8.6-1.4,1.5-2.1,2.3-.6.8-1.2,1.7-1.8,2.5-.7,1.5-1.5,2.9-2.3,4.5-1-1.3-1.1-2.3.2-3.4ZM613.2,370.4c1-1.3,1.7-2.2,2.6-3.3.2,2-.2,3.2-2.6,3.3ZM614.9,366.2c-2.4,1.5-4.8,3.1-7.2,4.7-.4.4-.9.8-1.5,1.4,0-1.2.3-1.9.9-2.4,4-2.3,7.7-5.1,10.2-9.2.4,3-.3,4.2-2.5,5.5ZM615.8,359.4h0c-.2.5-.6.7-1,.9h0s0,0,0,0c-.6.5-1.3.9-1.9,1.4-1.2,1-2.4,2-3.8,3.1-.4-2.8,1.7-3,3.2-3.7.7-.4,1.4-.9,2-1.3.5-.3.7-1,1.4-.8,1-1.2,2-2.3,3.2-3.7.3,2.7-1.6,3.2-3.2,4ZM617.9,349c0-1.2.6-1.2,1.2-1.5,0,1-.8.9-1.2,1.5ZM619.5,342.2s0,0,0,0h0c-.1,0-.2.2-.3.2-2.2,2.5-4.4,5-6.6,7.5-.3-4.9,3.8-5.6,6.6-7.5,0-.1.2-.2.3-.3,0,0,0,0,0,0-.1-1.3,1.4-1.4,1.8-2.2.1,1.3-.3,2.2-1.8,2.2ZM620.1,336.4c-.8.8-1.6,1.6-2.4,2.4-.3.3-.6.6-.9,1h0c-1.2,1.3-1.9,3-3.6,4-.3-2.7,1.1-3.8,3.1-4.5.5-.4.9-.7,1.4-1.1.8-.8,1.6-1.5,2.4-2.3h0c.6-.8,1.1-1.6,1.8-2.5.5,1.9-.9,2.3-1.8,3.1ZM619.5,331.4c-2.2,1.8-3.7,4.3-5.6,6.6.3-2.7-.4-5.6,2.6-7.6,2.5-1.7,4.1-4.4,5.7-7.3.6,3.6,0,6.2-2.8,8.3ZM617.8,319.1c-.5,1.6-1.7,2.7-2.9,4.3-.7-3,2-2.9,2.9-4.3ZM620.2,316.6c.6-.9,1.3-1.8,2.1-3,.6,2.1-.7,2.6-2.1,3ZM620.7,311.2c-2.3,1.9-4,4.4-5.6,7.1-.8-2.8-.8-2.8,1.2-4.5,2.4-2,4.2-4.5,6-7.3.6,2.2-.1,3.6-1.6,4.8ZM681.9,316.7c.2-2.8,2.6-.6,3.6-1.6.8.6,2.3-.9,2.4.8.2,2-1.3,3.8-2.8,3.8-3.5,0-3.6,0-3.3-3ZM634.3,311.5c-.4.4-.8,1.1-1.8.9.4-.7.9-1.1,1.8-.9ZM632.6,332.6c.3-.8.9-1,1.6-.9-.4.7-.8.9-1.6.9ZM633.3,336.2c0,.7-.9.9-1,.8-.7-.6,0-.7.4-.8.2,0,.4,0,.6,0ZM631.6,312.8c-.2,1.4-1.2,1.6-2,2.2-.3-1.7.9-1.6,2-2.2ZM629.6,318c.9-.6,1.9-1,3.8-1.1-1.4,1.1-2.3,1.9-3.2,2.6-.1.3-.4.6-.6.4-.6-.6-.3-1.3,0-2ZM630.6,322c0,1.2-.7,1.3-1.4,1.7-.3-1.5.6-1.3,1.4-1.7ZM630.7,325.9c-.6.6-.9,1.2-1.6,1.2-.2-1.2.4-1.3,1.6-1.2ZM630.6,329.7c-.5.9-1.1,1.2-1.7,1.6q-.1-1.5,1.7-1.6ZM631.5,333.4c-1,.7-2,1.4-3.2,2.2-.4-3,2.1-1.7,3.2-2.2ZM628,339.3c-.4-.3-.2-.7-.2-1.1,0-.7.5-.9,1.2-.9.6,0,1.2,0,2.6,0-1.1.8-1.6,1.2-2.2,1.6-.4.3-.8.9-1.4.4ZM631.5,341.3c1-.6,2-1.2,3.2-1.9-.4,2.3-1.2,3-3.2,1.9ZM636.7,313.8c.2,1.3-.6,1.5-1.9,2.1.6-1.3,1.1-1.7,1.9-2.1ZM635.9,335.3c-.2.1-.4.1-.9.2.3-.8.8-1.2,1.2-1.1.4.2.1.6-.3.8ZM636,330.4c.6-.5,1.3-1,1.8-1.4.4,1.3-1,1.1-1.8,1.4ZM636.9,325.7c.3-1,.7-1.6,1.6-2.1.1,1.2-.2,2-1.6,2.1ZM696,336.2c-.6,1.5-1.5,2.1-3.2,2.1-12.5,0-24.8,1.5-37.2,2.7-5.5.5-11.1.9-17.1,1.3,3.8-5.9,4.5-12.1,4-18.5-.2-2.8-.9-5.5-1.4-8.2-.3-1.6-.3-2.4,1.9-1.9,11.4,2.6,23,2.3,34.5,2,.8,0,1.5,0,2.3,0-.3,2.7-1.5,3.8-4.4,3.5-6.7-.8-13.4-.9-20-.5-1.7,0-3.5.3-5.2.5,0,0,0,0,0,0-.5.3-.9.5-1.4.8,3.4.4,6.9.7,10.3,1.1-3.3,1.2-6.8,1.3-10,2.7,9.3,1,18.6.6,28-.4-.4,1.8-.7,3.3-1.1,5.1,1.6-.8,2.8-1.9,3.4-3.2,1-2.5,3-2.8,5.2-2.8.5-.3,1-.8,1.4-.2.3.4,0,.9-.4,1.3-.2,1.1-.4,2.1-.6,3.2h0s0,0,0,0c.2.4,0,.9.6,1.1,1.4-1.1,2.4-2.6,3.1-4.2.7-1.8,1.7-3.1,4-3.1-.7-1.1-2.3.2-2.3-1.1,0-1.5.1-3,.6-4.4.3-.9,3.7-.3,4.3.6,1.3,2,1.9,4.2,2,6.5.4,4.8.4,9.5-1.5,14.1ZM795.6,327.1c0,0-.3.1-.4,0-.6-.4-.7-1-.2-1.6.7.3.8.9.6,1.5ZM793.7,321.1c.4,1.1,2,2,.7,3.3-.7.7-1.2.2-1.7-.3-1.7-1.7,1.2-1.7,1-2.9ZM793,320.2c-.3.4-.7.4-1.2,0-1-.9-1-1.8.2-3,.2,1.2,1.7,1.8.9,3ZM790.2,315c.3.7,1.9,1,.7,2-.4.3-1.1,1.1-1.6.6-.9-1,.8-1.5.9-2.5ZM790.8,321.5c0,.2-.4.4-.5.3-.4,0-.8-.1-.9-.6,0-.4.4-.4.7-.3.3.1.8,0,.7.6ZM782.6,312c.3-.3.8-.3,1.1,0,.4.4,0,.7-.4.9-1.2.6-1.9,2.2-3.8,1.8,1.1-1,2-1.8,3-2.7ZM780.3,327.4c-.7,1.4-1.7,1.6-2.6,2.3-.2-2.1,1.4-1.5,2.6-2.3ZM778.8,323.9c.8-.2,1.6-.4,2.4-.6,0,.1.2.3.3.4-.7.6-1.4,1.2-2.2,1.7-.4.2-1.1.2-1.3-.5-.1-.5.2-.9.7-1ZM781.8,331.4c-1.6.9-3.2,1.8-4.9,2.7-.1-2,1.2-2.8,4.9-2.7ZM780.3,318.9c1.2-.5,1.7-1.4,2.7-1,.1,0,.2.5.2.6-.6.8-1.4.8-2.9.4ZM780.4,320.4c0,1.2-1.3,1.6-2.1,2.4,0-1.1-.9-2.4.5-3.1.5-.3,1.5.3,1.6.7ZM778.1,317.4c-.4-.8-.8-1.5,0-2.1.5-.3,1,0,1.2.4.4,1-.8,1.1-1.1,1.7ZM777.4,312.7c-1.4-2.3,0-2.4,1.9-2.2-.7.8-1.3,1.5-1.9,2.2ZM778.4,306.3c.1.7-.6.8-.9,1.2-.3.4-.6.9-1.1,1.7q-.8-3.4,2-3ZM772.3,344.4c-.3,0-.6,0-1-.1.3-.3.4-.5.5-.6.3-.2.6,0,.8.3.2.3,0,.5-.3.5ZM774,323.1c-1,7-3.6,13.5-6.3,19.9-.5,1.2-1.3.8-2.2.7-11.4-1.5-22.8-2.5-34.3-2.5-5.1,0-10.2.3-15.3.4-3.8,0-7.6-.4-11.3-1.8-.7-.2-1.4-.2-.9-1.4,2.6-6.2,2.7-12.7,2.1-19.3,0-.3,0-.6,0-1h0s0,0,0,0c-.8-2.1-1.1-4.3-2.6-6.7,3.4,0,6.4.1,9.3,0,9.4-.4,18.6-2.3,27.9-3.6,5.2-.7,10.4-1.4,15.7-1.7,2.8-.2,1.5,2,1.8,3.1.4,1.6-.9,1.4-1.8,1.2-1.7-.6-3.9.4-5.2-1.6-1,1-2.2.7-3.4.7-6.9-.4-13.7,0-20.3,2-1,.3-2.1.5-2.9,1-4.9,3-10.5,3.5-16,4.3,1.7.7,3.4.2,5.1.4.5,0,1.6-.1.6,1-1,.8-1.9,1.7-2.9,2.5.2.1.4.3.5.3,4.4-4.1,9.9-3.2,15.1-3.2,7.2,0,14.5,0,21.9,0,0,2.1-1.1,3.8-2.1,5.8,2.4-.6,3.8-2.1,4.9-3.9,1-1.6,3.6-2.5,5.4-1.9.9.3.5.9.4,1.3-.3,3.3-1.1,6.6-1.8,9.9,2.8-2.8,4.5-6.2,5-10.1-.1-1.5,1.5-.7,1.9-1.5-2-.5-1.5-2.2-1.3-3.4.2-1.7,1.8-.3,2.7-.9.7-.1,1.4.2,2-.4,0,0-.1,0-.2,0-3.8-.3-5.9-2.1-5.7-6.3,3.4-.2,7-.5,10.6-.2.6,0,1.1,0,1.2.8.7,5.5,3.2,10.7,2.4,16.4ZM757.7,314.2c0,.8.2,2.1-1.3,1.5-1.3-.5-3.7.9-3.7-1.9,0-1.9,1.6-.6,2.3-1.1.8.7,2.9-.9,2.6,1.6ZM749.8,313.5c0,1.5-1,1.5-2.1,1.4-1-.1-2.1-.1-3.1-.2-3.5,0-7,0-10.6-.2-.6,0-1.2,0-1.8,0-.5,0-1.2.4-1.6,0-1.1,0-2.3,0-3.4,0,1-.2,2.1-.3,3.1-.5,5.8-1.2,11.7-1.2,17.5-1.3.6,0,2.1-.8,2.1,1ZM774.3,339.9c.3-1.2,1.6-.9,2.4-1.2.4-.2,1.2-.2,1,.4-.3,1.2-1.7.9-2.4,1.5-.7.1-1.2-.2-1.1-.7ZM777.4,344.3c-1,.3-1.6,0-1.6-.8,0-1.1,1.2-.6,1.9-.9.8-.3,1.3.2,1.3.9,0,1.4-1.3.3-1.6.8ZM780.7,338.1c-.3-.5.3-.8.8-.8.6-.1,1.1-.9,1.9-.4,0,.9-.7.8-1.3,1-.4.5-1,.8-1.4.2ZM782.5,343.5c-.6.2-.7-.2-.7-.8,0-1.6,1.3-1.6,2.2-1.9,1.1-.4.7.9,1.3,1.5-.6,1-1.8.9-2.8,1.2ZM785.9,314.4c.8-1.3,1.6-.8,2.9,0-1.3.6-2,1.9-3.2,1.1-.6-.3.1-.8.3-1.2ZM785.4,328.9c.2-.6.6-1.1,1.3-.9.1,0,.2.3.3.5-.5.2-.9.9-1.6.4ZM787,336c-.4-.1-.7-.2-.7-.6,0-.4.3-.6.6-.6.4,0,.7.3.7.7,0,.2-.4.3-.6.4ZM788.4,341.1c-1.1.4-.7-.8-.8-1.2-.2-1.6,1.4-1.4,2-2.2.8.1,1.6.7,1.5,1.1-.3,1.3-1.6,1.9-2.7,2.3ZM790.4,333.7c-.5-.6-.2-.9.3-1.3,1-.8,1.9-1.5,2.9-.1.1.2.3.3.5.6-.5.2-.9.6-1.3.6-.8.2-1.5,1.4-2.5.2ZM792.7,337.5c-1.5-2.6,1.5-2.6,2.1-3.8-.3,1.5-.9,2.7-2.1,3.8ZM795.8,331.2q-1.6-1.3,0-2.4v2.4Z"/>
      </g>
    </g>
  </g>
</svg>